ply
format ascii 1.0
comment Created by Blender3D 2.5 - www.blender.org, source file: kocl.blend
element vertex 16
property float x
property float y
property float z
property uchar red
property uchar green
property uchar blue
element face 6
property list uchar uint vertex_indices
end_header
14.022615 -10.595105 11.472525 255 255 255
11.866538 -12.668477 11.701557 255 255 255
11.360434 -11.828982 14.536890 255 255 255
14.022615 -10.595105 11.472525 255 255 255
11.360434 -11.828982 14.536890 255 255 255
13.516511 -9.755610 14.307857 255 255 255
-5.740639 17.790146 6.243809 25 25 191
-7.740639 17.790146 6.243809 25 25 191
-7.740641 17.790148 4.243808 25 25 191
-5.740639 17.790146 6.243809 25 25 191
-7.740641 17.790148 4.243808 25 25 191
-5.740639 17.790146 4.243809 25 25 191
-0.005224 1.000000 0.071568 255 255 0
-2.005224 1.000000 0.071567 255 255 0
-2.005225 -1.000000 0.071568 255 255 0
-0.005224 -1.000001 0.071568 255 255 0
3 0 1 2
3 3 4 5
3 6 7 8
3 9 10 11
3 12 13 14
3 12 14 15
