ply
format ascii 1.0
comment Created by Blender3D 248 - www.blender.org, source file: interp.blend
element vertex 10
property float x
property float y
property float z
property float nx
property float ny
property float nz
property uchar red
property uchar green
property uchar blue
element face 4
property list uchar uint vertex_indices
end_header
16.251143 1.022426 3.681404 -1.000000 0.000000 0.000000 255 162 101
16.251143 1.022426 1.681404 -1.000000 0.000000 0.000000 255 162 101
16.251143 -0.977575 3.681404 -1.000000 0.000000 0.000000 255 162 101
16.251143 -0.977575 1.681404 -1.000000 0.000000 0.000000 255 162 101
-1.465190 -9.038920 12.687119 0.051603 0.402975 -0.913755 255 255 255
-1.138878 -6.490713 13.829331 0.051603 0.402975 -0.913755 255 255 255
1.649843 -6.847824 13.829330 0.051603 0.402975 -0.913755 255 255 255
-1.465190 -9.038920 12.687119 0.051603 0.402974 -0.913755 255 255 255
1.649843 -6.847824 13.829330 0.051603 0.402974 -0.913755 255 255 255
1.323530 -9.396032 12.687120 0.051603 0.402974 -0.913755 255 255 255
3 0 1 2 
3 1 3 2 
3 4 5 6 
3 7 8 9 
