ply
format ascii 1.0
comment Created by SmallLuxGPU exporter for Blender 2.5, source file: SLG-kitchen.blend
element vertex 48
property float x
property float y
property float z
property uchar red
property uchar green
property uchar blue
element face 24
property list uchar uint vertex_indices
end_header
6.997839 -4.813264 0.410628 247 255 207
6.997839 -4.813263 2.410628 247 255 207
7.497839 -5.679289 2.410629 247 255 207
7.497839 -5.679289 0.410628 247 255 207
10.502898 -2.062343 2.165823 221 224 255
10.502898 -1.292474 2.165823 221 224 255
10.502898 -1.290474 2.163824 221 224 255
10.502898 -2.064343 2.163823 221 224 255
10.502897 -2.062343 1.014176 221 224 255
10.502898 -1.290474 2.163824 221 224 255
10.502897 -1.290473 1.016176 221 224 255
10.502897 -1.292473 1.014176 221 224 255
10.502898 -1.290474 2.163824 221 224 255
10.502897 -2.062343 1.014176 221 224 255
10.502897 -2.064343 1.016176 221 224 255
10.502898 -2.064343 2.163823 221 224 255
10.497488 -3.373065 0.214176 225 237 255
10.497488 -3.946935 0.214176 225 237 255
10.497488 -3.946935 2.025823 225 237 255
10.497488 -3.373066 2.025824 225 237 255
10.499619 -4.953065 1.014176 221 224 255
10.499619 -5.726935 1.014176 221 224 255
10.499619 -5.726935 2.165823 221 224 255
10.499619 -4.953066 2.165823 221 224 255
8.734959 -3.019799 2.589311 255 226 151
8.213394 -3.019800 2.589311 255 226 151
8.213394 -2.498234 2.589311 255 226 151
8.734959 -2.498234 2.589311 255 226 151
9.216822 -5.257014 2.589311 255 226 151
8.695255 -5.257015 2.589311 255 226 151
8.695255 -4.735449 2.589311 255 226 151
9.216822 -4.735449 2.589311 255 226 151
4.398203 -2.400263 2.589311 255 226 151
3.876638 -2.400263 2.589311 255 226 151
3.876638 -1.878697 2.589311 255 226 151
4.398203 -1.878697 2.589311 255 226 151
1.334939 -2.400263 2.589311 255 226 151
0.813374 -2.400263 2.589311 255 226 151
0.813374 -1.878697 2.589311 255 226 151
1.334939 -1.878697 2.589311 255 226 151
9.662449 -0.528152 1.413383 255 226 151
8.926207 -0.528152 1.413383 255 226 151
8.926207 -0.382857 1.413383 255 226 151
9.662449 -0.382857 1.413383 255 226 151
9.950415 -2.844088 1.413383 255 226 151
9.950416 -2.454355 1.413383 255 226 151
10.095711 -2.454355 1.413383 255 226 151
10.095710 -2.844088 1.413383 255 226 151
3 0 1 2
3 0 2 3
3 4 5 6
3 4 6 7
3 8 9 10
3 8 10 11
3 12 13 14
3 12 14 15
3 16 17 18
3 16 18 19
3 20 21 22
3 20 22 23
3 24 25 26
3 24 26 27
3 28 29 30
3 28 30 31
3 32 33 34
3 32 34 35
3 36 37 38
3 36 38 39
3 40 41 42
3 40 42 43
3 44 45 46
3 44 46 47
