ply
format ascii 1.0
comment Created by SmallLuxGPU exporter for Blender 2.5, source file: SLG-kitchen.blend
element vertex 24
property float x
property float y
property float z
property uchar red
property uchar green
property uchar blue
element face 12
property list uchar uint vertex_indices
end_header
8.734959 -3.019799 2.589311 255 226 151
8.213394 -3.019800 2.589311 255 226 151
8.213394 -2.498234 2.589311 255 226 151
8.734959 -2.498234 2.589311 255 226 151
9.216822 -5.257014 2.589311 255 226 151
8.695255 -5.257015 2.589311 255 226 151
8.695255 -4.735449 2.589311 255 226 151
9.216822 -4.735449 2.589311 255 226 151
4.398203 -2.400263 2.589311 255 226 151
3.876638 -2.400263 2.589311 255 226 151
3.876638 -1.878697 2.589311 255 226 151
4.398203 -1.878697 2.589311 255 226 151
1.334939 -2.400263 2.589311 255 226 151
0.813374 -2.400263 2.589311 255 226 151
0.813374 -1.878697 2.589311 255 226 151
1.334939 -1.878697 2.589311 255 226 151
9.662449 -0.528152 1.413383 255 226 151
8.926207 -0.528152 1.413383 255 226 151
8.926207 -0.382857 1.413383 255 226 151
9.662449 -0.382857 1.413383 255 226 151
9.950415 -2.844088 1.413383 255 226 151
9.950416 -2.454355 1.413383 255 226 151
10.095711 -2.454355 1.413383 255 226 151
10.095710 -2.844088 1.413383 255 226 151
3 0 1 2
3 0 2 3

3 4 5 6
3 4 6 7

3 8 9 10
3 8 10 11

3 12 13 14
3 12 14 15

3 16 17 18
3 16 18 19

3 20 21 22
3 20 22 23

