ply
format ascii 1.0
comment Created by Blender3D 248 - www.blender.org, source file: loft.blend
element vertex 124
property float x
property float y
property float z
property uchar red
property uchar green
property uchar blue
element face 62
property list uchar uint vertex_indices
end_header
1.699608 7.294863 2.841082 255 255 255
1.699608 7.214862 2.841082 255 255 255
1.599607 7.214862 2.841082 255 255 255
1.599607 7.294863 2.841082 255 255 255
1.192432 7.338110 2.800115 255 255 255
1.192432 7.258110 2.800115 255 255 255
1.092431 7.258110 2.800115 255 255 255
1.092431 7.338110 2.800115 255 255 255
-0.899194 6.375962 2.801922 255 255 255
-0.899194 6.295962 2.801922 255 255 255
-0.999194 6.295962 2.801922 255 255 255
-0.999194 6.375962 2.801922 255 255 255
-0.908288 8.594904 2.797067 255 255 255
-0.908288 8.514904 2.797067 255 255 255
-1.008288 8.514904 2.797067 255 255 255
-1.008288 8.594904 2.797067 255 255 255
-2.956906 8.600104 2.801923 255 255 255
-2.956906 8.520104 2.801923 255 255 255
-3.056906 8.520104 2.801923 255 255 255
-3.056906 8.600104 2.801923 255 255 255
-4.745246 5.588162 2.801923 255 255 255
-4.745246 5.508162 2.801923 255 255 255
-4.845246 5.508162 2.801923 255 255 255
-4.845246 5.588162 2.801923 255 255 255
-4.745246 3.253275 2.801923 255 255 255
-4.745246 3.173275 2.801923 255 255 255
-4.845246 3.173275 2.801923 255 255 255
-4.845246 3.253275 2.801923 255 255 255
-3.472083 2.035466 2.801923 255 255 255
-3.472083 1.955466 2.801923 255 255 255
-3.572083 1.955466 2.801923 255 255 255
-3.572083 2.035466 2.801923 255 255 255
-2.744561 2.035466 2.801923 255 255 255
-2.744561 1.955466 2.801923 255 255 255
-2.844561 1.955466 2.801923 255 255 255
-2.844561 2.035466 2.801923 255 255 255
-1.961684 2.035466 2.801923 255 255 255
-1.961684 1.955466 2.801923 255 255 255
-2.061684 1.955466 2.801923 255 255 255
-2.061684 2.035466 2.801923 255 255 255
-4.745246 0.978788 2.801923 255 255 255
-4.745246 0.898788 2.801923 255 255 255
-4.845246 0.898788 2.801923 255 255 255
-4.845246 0.978788 2.801923 255 255 255
-4.745246 0.040363 2.801923 255 255 255
-4.745246 -0.039637 2.801923 255 255 255
-4.845246 -0.039637 2.801923 255 255 255
-4.845246 0.040363 2.801923 255 255 255
-4.745246 -0.990354 2.801923 255 255 255
-4.745246 -1.070354 2.801923 255 255 255
-4.845246 -1.070354 2.801923 255 255 255
-4.845246 -0.990354 2.801923 255 255 255
-3.472083 1.027116 2.801923 255 255 255
-3.472083 0.947116 2.801923 255 255 255
-3.572083 0.947116 2.801923 255 255 255
-3.572083 1.027116 2.801923 255 255 255
-3.472083 0.036613 2.801923 255 255 255
-3.472083 -0.043387 2.801923 255 255 255
-3.572083 -0.043387 2.801923 255 255 255
-3.572083 0.036613 2.801923 255 255 255
-3.472083 -0.944967 2.801923 255 255 255
-3.472083 -1.024967 2.801923 255 255 255
-3.572083 -1.024967 2.801923 255 255 255
-3.572083 -0.944967 2.801923 255 255 255
-3.472083 -1.890853 2.801923 255 255 255
-3.472083 -1.970853 2.801923 255 255 255
-3.572083 -1.970853 2.801923 255 255 255
-3.572083 -1.890853 2.801923 255 255 255
-2.767130 -1.890853 2.801923 255 255 255
-2.767130 -1.970853 2.801923 255 255 255
-2.867130 -1.970853 2.801923 255 255 255
-2.867130 -1.890853 2.801923 255 255 255
-1.964019 -1.890853 2.801923 255 255 255
-1.964019 -1.970853 2.801923 255 255 255
-2.064019 -1.970853 2.801923 255 255 255
-2.064019 -1.890853 2.801923 255 255 255
-1.964019 -0.936044 2.801923 255 255 255
-1.964019 -1.016044 2.801923 255 255 255
-2.064019 -1.016044 2.801923 255 255 255
-2.064019 -0.936044 2.801923 255 255 255
-1.964019 0.036613 2.801923 255 255 255
-1.964019 -0.043387 2.801923 255 255 255
-2.064019 -0.043387 2.801923 255 255 255
-2.064019 0.036613 2.801923 255 255 255
-1.964019 1.036040 2.801923 255 255 255
-1.964019 0.956040 2.801923 255 255 255
-2.064019 0.956040 2.801923 255 255 255
-2.064019 1.036040 2.801923 255 255 255
-2.722513 1.036040 2.801923 255 255 255
-2.722513 0.956040 2.801923 255 255 255
-2.822513 0.956040 2.801923 255 255 255
-2.822513 1.036040 2.801923 255 255 255
-2.722513 0.045536 2.801923 255 255 255
-2.722513 -0.034464 2.801923 255 255 255
-2.822513 -0.034464 2.801923 255 255 255
-2.822513 0.045536 2.801923 255 255 255
-2.722513 -0.944967 2.801923 255 255 255
-2.722513 -1.024967 2.801923 255 255 255
-2.822513 -1.024967 2.801923 255 255 255
-2.822513 -0.944967 2.801923 255 255 255
-4.887432 -0.613736 5.573484 255 255 255
-4.887432 -0.693736 5.573484 255 255 255
-4.987432 -0.693736 5.573484 255 255 255
-4.987432 -0.613736 5.573484 255 255 255
-1.420238 6.289553 5.573484 255 255 255
-1.340238 6.289553 5.573484 255 255 255
-1.340238 6.189553 5.573484 255 255 255
-1.420238 6.189553 5.573484 255 255 255
-1.881942 8.701882 5.573484 255 255 255
-1.801942 8.701882 5.573484 255 255 255
-1.801942 8.601883 5.573484 255 255 255
-1.881942 8.601883 5.573484 255 255 255
2.098001 4.852752 0.991712 255 255 255
2.178001 4.852752 0.991712 255 255 255
2.178001 4.852752 1.091712 255 255 255
2.098001 4.852752 1.091712 255 255 255
-0.053640 4.852752 2.605442 255 255 255
0.026360 4.852752 2.605442 255 255 255
-0.053640 4.852752 2.705442 255 255 255
0.026360 4.852752 2.705442 255 255 255
-1.962693 4.852752 3.797282 255 255 255
-1.882693 4.852752 3.797282 255 255 255
-1.882693 4.852752 3.897282 255 255 255
-1.962693 4.852752 3.897282 255 255 255
3 0 1 2 
3 0 2 3 
3 4 5 6 
3 4 6 7 
3 8 9 10 
3 8 10 11 
3 12 13 14 
3 12 14 15 
3 16 17 18 
3 16 18 19 
3 20 21 22 
3 20 22 23 
3 24 25 26 
3 24 26 27 
3 28 29 30 
3 28 30 31 
3 32 33 34 
3 32 34 35 
3 36 37 38 
3 36 38 39 
3 40 41 42 
3 40 42 43 
3 44 45 46 
3 44 46 47 
3 48 49 50 
3 48 50 51 
3 52 53 54 
3 52 54 55 
3 56 57 58 
3 56 58 59 
3 60 61 62 
3 60 62 63 
3 64 65 66 
3 64 66 67 
3 68 69 70 
3 68 70 71 
3 72 73 74 
3 72 74 75 
3 76 77 78 
3 76 78 79 
3 80 81 82 
3 80 82 83 
3 84 85 86 
3 84 86 87 
3 88 89 90 
3 88 90 91 
3 92 93 94 
3 92 94 95 
3 96 97 98 
3 96 98 99 
3 100 101 102 
3 100 102 103 
3 104 105 106 
3 104 106 107 
3 108 109 110 
3 108 110 111 
3 112 113 114 
3 112 114 115 
3 116 117 118 
3 117 119 118 
3 120 121 122 
3 120 122 123 
